<?xml version="1.0" standalone="no"?>
<!DOCTYPE svg PUBLIC "-//W3C//DTD SVG 20010904//EN"
 "http://www.w3.org/TR/2001/REC-SVG-20010904/DTD/svg10.dtd">
<svg version="1.0" xmlns="http://www.w3.org/2000/svg"
 width="260.000000pt" height="260.000000pt" viewBox="0 0 260.000000 260.000000"
 preserveAspectRatio="xMidYMid meet">
<metadata>
Created by potrace 1.14, written by Peter Selinger 2001-2017
</metadata>
<g transform="translate(0.000000,260.000000) scale(0.100000,-0.100000)"
fill="#000000" stroke="none">
<path d="M1100 2585 c-282 -45 -530 -175 -732 -383 -181 -187 -289 -392 -345
-652 -25 -119 -25 -381 0 -500 56 -260 164 -465 345 -652 342 -353 831 -481
1307 -343 416 121 766 481 879 903 98 365 36 749 -171 1061 -74 111 -221 262
-331 341 -270 193 -625 276 -952 225z m-347 -739 c291 -50 607 -72 607 -43 0
6 8 2 18 -9 9 -12 31 -24 47 -27 17 -3 48 -8 70 -12 68 -12 72 -14 39 -34 -16
-10 -34 -24 -41 -32 -10 -13 -6 -15 29 -16 30 -2 49 5 74 24 19 14 32 19 29
12 -8 -22 46 -42 79 -30 31 13 92 -5 66 -18 -8 -5 -32 -11 -52 -15 -26 -5 -42
-16 -57 -39 -22 -35 -19 -52 3 -21 12 16 12 8 -1 -44 -18 -70 -9 -125 20 -130
27 -5 42 39 29 88 -11 43 1 105 18 95 4 -3 11 6 14 20 7 28 13 29 49 16 22 -9
24 -15 22 -58 -2 -26 -1 -42 2 -35 8 21 33 13 43 -13 7 -20 6 -32 -6 -50 -38
-58 17 -73 87 -24 55 39 71 58 64 80 -4 13 2 19 23 24 16 3 35 5 41 3 15 -4
27 16 36 54 7 35 38 55 99 67 64 12 83 32 92 98 5 46 10 56 32 64 21 8 29 7
39 -7 7 -10 13 -25 13 -34 0 -9 11 -27 25 -40 l25 -24 -49 -47 c-77 -73 -84
-102 -37 -141 18 -15 19 -18 4 -18 -10 0 -18 -6 -18 -12 0 -9 -4 -8 -10 2 -8
13 -10 13 -10 -2 0 -9 -9 -19 -19 -23 -11 -3 -31 -15 -45 -26 -20 -16 -25 -26
-20 -45 4 -13 1 -38 -6 -55 -12 -29 -13 -29 -33 -12 -22 19 -16 2 9 -28 10
-11 11 -24 3 -52 -5 -20 -12 -37 -15 -37 -3 0 -3 9 1 19 3 11 -1 25 -10 34 -8
9 -16 27 -17 41 -1 14 -5 23 -8 20 -7 -8 -6 -74 1 -74 4 0 10 -12 14 -27 3
-15 15 -33 26 -41 10 -7 19 -19 19 -25 0 -8 -3 -8 -9 1 -7 11 -9 11 -14 -2 -4
-10 -1 -16 9 -16 9 0 14 -6 11 -12 -2 -7 -12 -12 -21 -12 -19 2 -19 -1 -6 -26
8 -15 6 -20 -9 -25 -11 -3 -23 -14 -26 -25 -3 -10 -17 -25 -30 -34 -14 -9 -25
-22 -25 -29 0 -7 -15 -28 -34 -46 -18 -18 -39 -50 -45 -72 -11 -38 -10 -44 30
-122 23 -45 48 -91 55 -102 25 -36 13 -115 -17 -115 -4 0 -11 9 -14 20 -3 11
-13 20 -21 20 -8 0 -14 4 -14 9 0 4 -11 20 -25 34 -15 14 -29 42 -32 64 -10
65 -56 103 -102 83 -21 -8 -33 -8 -53 3 -30 15 -138 13 -168 -3 -19 -10 -18
-37 2 -51 5 -3 -13 -5 -40 -5 -27 1 -55 6 -63 12 -24 19 -131 2 -175 -27 -22
-15 -49 -29 -61 -33 -28 -9 -57 -70 -49 -107 6 -32 -4 -36 -49 -19 -16 6 -33
26 -44 52 -11 24 -34 66 -53 93 -27 41 -39 51 -66 53 -22 2 -34 -2 -38 -12
-14 -37 -78 -5 -89 44 -15 70 -101 126 -151 100 -48 -26 -200 22 -269 86 -15
13 -43 25 -74 29 -37 5 -51 11 -51 23 0 27 -43 80 -82 102 -24 13 -38 29 -38
41 0 11 -7 33 -15 49 -8 16 -14 39 -14 52 1 13 -6 48 -14 78 -24 89 -28 162
-12 184 8 11 15 38 15 59 0 22 9 54 19 71 40 64 63 140 62 199 -1 31 0 57 3
57 15 0 62 -33 68 -47 5 -14 7 -11 8 12 2 17 2 35 1 40 0 6 46 -1 110 -16 60
-15 179 -39 262 -53z"/>
<path d="M1190 1450 c0 -47 2 -50 25 -50 23 0 25 3 25 50 0 47 -2 50 -25 50
-23 0 -25 -3 -25 -50z"/>
<path d="M1347 1422 c-31 -32 -33 -44 -12 -62 13 -11 21 -8 50 20 33 32 34 35
18 52 -21 24 -24 23 -56 -10z"/>
<path d="M1040 1425 c-11 -13 -8 -21 20 -50 32 -33 35 -34 52 -18 18 16 17 18
-14 50 -36 38 -41 39 -58 18z"/>
<path d="M1182 1288 c-7 -7 -12 -21 -12 -32 0 -33 70 -235 87 -252 24 -24 56
-13 82 29 l25 38 43 -43 c41 -40 44 -41 60 -25 16 16 15 19 -25 60 -45 45 -50
57 -28 57 24 0 66 41 66 65 0 31 -10 37 -135 79 -118 39 -144 43 -163 24z
m160 -77 l83 -29 -46 -21 c-35 -16 -50 -30 -64 -61 -10 -22 -21 -40 -24 -40
-4 0 -21 43 -38 95 -28 86 -30 95 -13 90 10 -3 56 -19 102 -34z"/>
<path d="M970 1255 c0 -23 3 -25 50 -25 47 0 50 2 50 25 0 23 -3 25 -50 25
-47 0 -50 -2 -50 -25z"/>
<path d="M1045 1130 c-23 -24 -26 -32 -15 -45 18 -22 33 -19 65 15 23 24 26
32 15 45 -18 22 -33 19 -65 -15z"/>
</g>
</svg>
