<?xml version="1.0" standalone="no"?>
<!DOCTYPE svg PUBLIC "-//W3C//DTD SVG 20010904//EN"
 "http://www.w3.org/TR/2001/REC-SVG-20010904/DTD/svg10.dtd">
<svg version="1.0" xmlns="http://www.w3.org/2000/svg"
 width="260.000000pt" height="260.000000pt" viewBox="0 0 260.000000 260.000000"
 preserveAspectRatio="xMidYMid meet">
<metadata>
Created by potrace 1.14, written by Peter Selinger 2001-2017
</metadata>
<g transform="translate(0.000000,260.000000) scale(0.100000,-0.100000)"
fill="#000000" stroke="none">
<path d="M1170 2594 c-576 -71 -1019 -472 -1142 -1034 -28 -125 -30 -385 -4
-505 59 -275 167 -476 361 -670 193 -194 393 -302 666 -361 118 -26 380 -26
498 0 273 59 473 167 666 361 194 194 302 395 361 670 26 120 24 380 -4 505
-113 514 -497 899 -1007 1011 -88 19 -318 32 -395 23z m-670 -696 c218 -52
507 -93 725 -104 99 -5 135 -4 135 4 0 19 17 14 23 -7 5 -19 25 -24 136 -36
57 -6 60 -10 22 -29 -17 -9 -35 -24 -40 -34 -8 -15 -5 -17 29 -17 21 0 47 8
57 16 29 25 43 32 38 17 -8 -21 51 -40 81 -26 18 8 31 8 49 0 33 -15 32 -32
-3 -32 -41 0 -78 -21 -98 -55 l-17 -30 23 20 23 20 -7 -20 c-28 -75 -22 -175
10 -175 24 0 35 46 23 93 -11 44 2 104 20 93 5 -3 12 5 15 19 7 28 32 33 61
12 15 -12 17 -22 11 -58 -6 -39 -5 -42 7 -25 18 24 34 15 42 -25 5 -21 2 -36
-9 -48 -21 -23 -20 -38 3 -46 22 -7 43 1 99 39 42 28 46 35 43 68 -2 11 7 19
23 23 14 3 37 7 51 10 19 4 25 12 25 33 0 39 36 70 92 80 72 14 91 33 103 104
9 53 13 62 34 65 28 4 51 -13 51 -37 0 -9 11 -30 25 -46 26 -31 31 -44 15 -44
-13 0 -79 -70 -95 -100 -20 -39 0 -77 38 -71 4 0 7 -3 7 -7 0 -5 -23 -19 -52
-33 -82 -38 -98 -54 -91 -93 7 -43 -12 -82 -33 -65 -8 6 -14 7 -14 1 0 -5 7
-15 15 -22 11 -9 14 -22 9 -44 -7 -37 -27 -62 -24 -31 4 34 0 46 -10 40 -9 -6
-14 17 -13 54 1 9 -2 10 -9 3 -7 -7 -6 -23 3 -49 7 -21 14 -44 15 -51 1 -6 14
-26 29 -43 29 -35 28 -49 -3 -65 -13 -6 -18 -15 -13 -23 6 -8 -8 -30 -38 -62
-89 -96 -116 -132 -127 -173 -10 -39 -8 -45 43 -143 55 -105 66 -159 39 -183
-12 -9 -24 -2 -63 40 -52 56 -61 72 -62 110 -1 16 -14 35 -37 54 -32 25 -39
27 -59 16 -20 -11 -30 -10 -57 2 -37 16 -136 15 -169 -2 -19 -11 -19 -13 -5
-35 21 -31 20 -38 -1 -27 -10 5 -27 6 -38 2 -13 -5 -31 -1 -51 11 -17 10 -34
16 -38 12 -4 -4 -24 -6 -45 -4 -25 1 -50 -5 -72 -18 -19 -12 -45 -26 -59 -33
-56 -29 -75 -55 -74 -107 l0 -49 -35 12 c-36 12 -38 15 -105 137 -10 19 -25
42 -34 52 -21 23 -66 22 -83 -3 -14 -20 -14 -20 -46 -1 -19 12 -34 31 -37 49
-14 63 -125 134 -155 99 -18 -23 -124 2 -202 47 -108 63 -113 65 -151 71 -30
5 -38 10 -38 26 0 21 -84 109 -104 109 -12 0 -35 73 -40 123 -2 15 -6 30 -9
34 -4 3 -7 17 -7 30 0 14 -5 34 -12 46 -18 34 -20 131 -3 164 8 15 15 47 15
69 0 24 6 47 14 54 8 6 20 28 27 48 6 20 16 42 21 49 5 6 12 45 15 85 3 40 7
74 8 76 7 8 64 -30 68 -45 3 -10 5 2 6 26 1 37 4 42 19 36 9 -3 55 -16 102
-27z"/>
<path d="M1192 1453 c3 -41 6 -48 26 -51 20 -3 22 0 22 47 0 48 -2 51 -26 51
-24 0 -25 -2 -22 -47z"/>
<path d="M1352 1417 c-30 -30 -31 -35 -17 -47 14 -12 21 -9 48 18 28 28 30 33
16 47 -13 14 -18 12 -47 -18z"/>
<path d="M1040 1425 c-11 -13 -8 -21 15 -45 32 -33 53 -38 62 -14 3 9 -6 27
-23 45 -32 33 -37 35 -54 14z"/>
<path d="M1182 1288 c-18 -18 -15 -32 24 -153 43 -129 61 -154 99 -137 14 7
31 26 37 42 5 17 13 30 17 30 4 0 24 -18 46 -40 37 -38 40 -39 57 -23 18 16
17 18 -24 61 -24 24 -38 46 -33 48 41 16 75 46 75 68 0 33 -10 38 -135 80
-118 39 -144 43 -163 24z m153 -72 l100 -33 -52 -23 c-45 -19 -54 -28 -69 -66
-9 -24 -20 -44 -23 -44 -4 0 -20 39 -35 88 -16 48 -31 93 -33 100 -7 17 2 16
112 -22z"/>
<path d="M970 1255 c0 -23 3 -25 50 -25 47 0 50 2 50 25 0 23 -3 25 -50 25
-47 0 -50 -2 -50 -25z"/>
<path d="M2185 1180 c-3 -5 1 -10 10 -10 9 0 13 5 10 10 -3 6 -8 10 -10 10 -2
0 -7 -4 -10 -10z"/>
<path d="M1052 1127 c-29 -30 -31 -35 -17 -47 14 -11 21 -8 50 20 27 26 32 37
24 47 -16 19 -21 17 -57 -20z"/>
</g>
</svg>
