<svg xmlns="http://www.w3.org/2000/svg" xmlns:xlink="http://www.w3.org/1999/xlink" viewBox="0 0 83.8 24" xmlns:v="https://vecta.io/nano"><g fill="#fff"><path d="M59.8 5.938v11.9a2.65 2.65 0 0 0 2.6 2.6h18.9a2.65 2.65 0 0 0 2.6-2.6v-11.9a2.65 2.65 0 0 0-2.6-2.6H62.4c-1.4.1-2.6 1.2-2.6 2.6zm2.9-.9h18.6l-8.7 8c-.4.4-.8.4-1.2 0l-8.7-8zm-1.3 1.5l8.6 7.9a2.74 2.74 0 0 0 3.6 0l8.6-7.9v11.5c0 .5-.4.9-.9.9h-19c-.5 0-.9-.4-.9-.9v-11.5z"/><path d="M42.1.1C36 .1 30.9 4.4 29.9 10.3s2.5 11.6 8.2 13.5c.2.1.4 0 .6-.1a.55.55 0 0 0 .3-.5v-2.1c-3.5.8-4.3-1.6-4.3-1.6-.2-.7-.7-1.4-1.3-1.8-1.1-.8.1-.7.1-.7.8.1 1.5.6 1.9 1.2.3.6.9 1.1 1.6 1.2s1.4.1 2-.2c.1-.6.3-1.2.8-1.6-2.7-.3-5.6-1.4-5.6-6 0-1.2.4-2.4 1.2-3.3-.5-1-.5-2.1 0-3.2 0 0 1-.3 3.4 1.2a13 13 0 0 1 6.2 0c2.3-1.5 3.4-1.2 3.4-1.2.4 1 .5 2.2.1 3.2.8.9 1.3 2.1 1.2 3.3 0 4.7-2.8 5.7-5.6 6 .6.6.9 1.4.8 2.2v3.3c0 .3.2.6.6.6h.2c6.5-2.1 10-9 7.8-15.4C52.1 3.4 47.4.1 42.1.1z" fill-rule="evenodd"/></g><defs><path id="A" d="M.3 0h24v24H.3z"/></defs><clipPath id="B"><use xlink:href="#A"/></clipPath><g clip-path="url(#B)"><path d="M24 4.4c-.9.4-1.8.7-2.8.8 1-.6 1.8-1.6 2.2-2.7-1 .6-2 1-3.1 1.2a4.84 4.84 0 0 0-3.6-1.6c-3.2 0-5.5 3-4.8 6C7.7 8 4.1 6 1.7 3 .4 5.2 1 8.1 3.2 9.6c-.8 0-1.6-.2-2.2-.6-.1 2.3 1.6 4.4 3.9 4.9-.7.2-1.5.2-2.2.1a4.74 4.74 0 0 0 4.6 3.4 10.09 10.09 0 0 1-7.3 2c2.2 1.4 4.8 2.2 7.5 2.2 9.1 0 14.3-7.7 14-14.6 1-.7 1.8-1.6 2.5-2.6z" fill="#fff"/></g></svg>